<?xml version="1.0" encoding="UTF-8"?>
<!DOCTYPE svg PUBLIC "-//W3C//DTD SVG 1.1//EN" "http://www.w3.org/Graphics/SVG/1.1/DTD/svg11.dtd">
<!-- Creator: CorelDRAW 2021.5 -->
<svg xmlns="http://www.w3.org/2000/svg" xml:space="preserve" width="5.11452in" height="4.66526in" version="1.1" style="shape-rendering:geometricPrecision; text-rendering:geometricPrecision; image-rendering:optimizeQuality; fill-rule:evenodd; clip-rule:evenodd"
viewBox="0 0 5157.92 4704.84"
 xmlns:xlink="http://www.w3.org/1999/xlink"
 xmlns:xodm="http://www.corel.com/coreldraw/odm/2003">
 <defs>
  <style type="text/css">
   <![CDATA[
    .fil0 {fill:red}
   ]]>
  </style>
 </defs>
 <g id="Layer_x0020_1">
  <metadata id="CorelCorpID_0Corel-Layer"/>
  <path class="fil0" d="M2480.5 2061.68c21.05,-1.75 29.47,-15.42 38.46,-28.83 -6.75,-4.52 -8.25,-5.37 -15,-9.03l-72.78 -23.35c-6.66,-1.42 -9.74,-1.2 -16.45,-2.79l-49.34 -8.34c-20.59,-1.91 -15.57,-5 -30.39,-8.06 -42.55,-8.81 -144.61,0.61 -196.12,-0.97 -23.39,-0.71 -43.16,-7.31 -61.53,-15.38 -10.43,-4.59 -17.72,-9.96 -26.33,-12.14 -15.89,-4.03 -31.61,-10.89 -43.98,-8.62l-43.4 18.9c-20,16.52 -97.99,181.71 -110.04,216.78 -1.9,5.52 -2.58,8.73 -4.56,14.67 -11.52,34.71 -30.14,87.62 -31.98,121.81 -2.21,41.05 -17.76,103.11 17.3,136.63 32.37,30.96 66.91,-1.04 93.88,40.71 14.46,22.39 28.59,43.43 50.57,59.98 63.19,47.61 58.98,56.3 88.29,36.67 13.5,28.11 11.59,53.01 28.15,77.58 19.95,29.6 45.97,20.88 83.2,36.96 26.18,11.31 39.13,32.27 63.79,46.76 1.24,0.73 4.78,2.85 6.01,3.61 7.08,4.35 4.8,3.4 11.78,7.44 1.25,0.73 4.83,2.81 6.15,3.47 13.25,6.65 -8.62,-2.65 6.52,3.09 25.71,9.76 84.34,-0.95 124.53,19.67 1.74,0.89 11.73,6.98 12.07,7.16l35.84 21.84c11.34,5.04 21.31,3.09 35.37,3.09 -1.56,-18.77 -5.36,-16.62 -13.98,-29.27l-12.82 -25.63c-7.65,-23.69 -8.7,-55.4 -16.45,-74.86 -10.63,-26.66 -14.63,-66.27 -27.44,-97.52l-15.13 -42.55c-17.94,-49.39 -24.75,-52.54 -24.75,-100.21 20.87,0.46 25.13,5.13 35.02,17.85 9.45,12.14 4.07,7.06 10.88,17.95l42.36 77.79c0.71,1.27 2.75,4.9 3.49,6.13 4.9,8.22 5.49,8.07 11.67,17.17l44.79 84.98c6.9,14.34 7.6,19.7 20.03,28.03 0,-29.6 10.26,-35.62 28.84,-48.06 33.24,8.87 44.18,46.32 55.59,74.18 4.03,9.84 8.76,20.09 13.73,29.52 18.8,35.66 35.29,80.92 63.96,109.06 72.92,71.6 64,45.35 134.75,86.35l6.01 3.6c12.42,7.33 71.16,48.11 33.61,48.11l-33.65 0c0,38.19 24.16,41.07 54.71,51.03l7.12 2.5c37.19,11.76 43.87,13.68 67.95,47.41 21.8,30.54 74.89,93.1 9.62,110.52 0.64,28.82 10.49,29.19 30.97,41.13l9.22 5.21c0.99,0.5 2.26,1.06 3.27,1.54l22.71 10.93c0.94,0.51 2.11,1.24 3.05,1.75 0.94,0.51 2.16,1.2 3.1,1.71l9.56 4.86c0.94,0.52 2.22,1.13 3.13,1.67 0.91,0.54 2.15,1.21 3.03,1.78 0.53,0.35 9.78,7.98 10.57,8.66 21.65,18.63 52.59,33.68 70.27,59.5 3.72,5.44 11.92,22.48 13.79,29.47l-33.23 -5.23c-51.94,-22.74 -81.52,-57.37 -165.88,-88.86l-32.34 -10.92c-12.48,-4.49 8.5,-5.52 -47.36,-5.52 0.77,34.69 32.17,42.23 59.01,51.54 15.91,5.51 22.93,7.99 34.08,18.79 14.68,14.22 12.66,14.4 12.66,40.2 -19.7,1.64 -57.68,24.71 -57.68,43.25 0,60.64 1.47,35.52 7.04,55.45 3.39,12.15 1.52,9.14 2.68,21.35 2.12,22.46 19.01,31.64 0.26,53.31 -17.51,20.24 -44.42,6.02 -63.61,-4.4 -21.35,-11.59 -55.16,-29.08 -78.98,-13.34 -1.21,0.8 -4.29,3.54 -5.36,4.36 -6.21,4.74 -5.1,4.24 -11.04,8.22l-5.18 42.88c-0.39,1.15 -0.91,2.35 -1.29,3.51 -18.26,54.88 -46.4,29.23 -46.4,59.33 0,13.16 9.61,15.68 9.61,28.84 0,9.3 -6.54,15.64 -9.61,28.83 -26.29,-17.6 -63.7,-60.84 -91.34,-67.28 -60.35,40.4 52.53,102.86 17.75,147.34 -0.64,0.81 -1.62,1.84 -2.33,2.56 -28.71,28.88 -53.06,-14.26 -89.32,-27.95 -15.98,-6.03 -1.13,-2.19 -14.05,-5.17 -23.87,-5.51 -50.3,2.82 -74.15,-2.77 -26.99,-6.32 -56.54,-37.12 -78.24,-37.12 -28.44,0 -29.7,2.9 -62.63,14.28 -5.36,1.85 -14.46,5.64 -19.94,8.9 -1.56,0.93 -6.9,4.74 -8.46,5.97 -7.61,5.97 -1.57,1.76 -7.68,6.74 -16.1,13.11 -20.17,9.87 -34.87,22.81 -46.68,41.06 -15.44,38.72 -15.44,61.45 0,13.43 -2.51,16.26 -8.62,25.03l-14.71 33.36c-0.18,0.47 -6.19,12.91 -7.83,16.2 -17.89,36.11 -40.96,50.85 -40.96,21.53 0,-66.07 9.62,-68.47 9.62,-81.7 0,-90.91 16.79,-171.78 -38.46,-173.01 -3.94,10.89 -1.39,3.76 -7.91,11.32l-24.35 33.32c-0.48,1 -1.08,2.25 -1.55,3.26l-16.88 45.6c-6.43,16 -15.75,32.97 -24.1,47.99 -16.31,29.33 -24.15,36.33 -55,36.33 0,-44.27 0.27,-27.42 12.59,-64.3l14.72 -47.77c4.72,-20.34 6.73,-66.8 1,-88.91l-15.76 -23.02c-12.66,-8.91 -31.04,-5.45 -60.62,-21.09 0,-25.19 5.3,-40.29 14.54,-62.36 1.87,-4.48 9.72,-21.57 13,-25.45 19.24,-22.7 -18.08,15.61 4.96,-4.65 8.32,-7.31 11.16,-2.34 15.57,-13.27l-103.56 -45.44c-14.77,-7.16 -21.2,-8.68 -24.88,-23.19 -2.27,-8.94 -0.37,-13.4 -2.21,-21.81 -5.36,-24.39 -22.37,-15.14 -28.45,-43.67 -6.36,-29.87 0.47,-52.45 0.47,-86.94 0,-13.76 -45.36,-71.44 -56.24,-87.94 -16.74,-25.38 -21.59,-45.77 -7,-71.41l11.55 -17.28c11.96,-15.91 -1.19,-2.2 13.86,-14.98 6.05,-5.15 7.67,-6.13 13.8,-10.23 18.85,5.03 33.17,18.79 47.28,29.62 10.39,7.98 34.93,20 48.86,23.24 7.5,-10.23 0.37,-6.25 14.42,-9.61 -0.64,-28.4 -3.57,-16.43 -17.09,-36.35l-8.12 -15.48c-0.56,-3.16 -11.01,-4.23 6.8,-9.88 7.76,-2.46 18.58,-1.13 25.83,0.85 14.62,4 -1.72,-0.63 10.62,4.28l6.84 2.83c2.19,0.87 9.16,3.43 10.51,3.93 12.52,4.6 9.19,6.15 27.1,6.55 -1.58,-18.92 -1.95,-13.99 -13.06,-25.39l-24.35 -33.33c-5.77,-7.83 -1.61,-0.41 -8.25,-10.98 -19.97,-31.81 -9.8,-22.83 -2.42,-50.44 34.83,0 49.66,2.42 72.05,19.28l13.05 10.99c0.81,0.6 1.97,1.41 2.81,1.99l34.84 27.64c38.27,33.43 84.6,53.95 129.65,77.03l18.57 10.27c15.51,7.71 29.21,7.42 46.29,11.39 -1.13,-13.6 -1.06,-7.43 -3.92,-15.3 -0.4,-1.11 -5.03,-10.99 -6.19,-13.03 -6.07,-10.62 -7.81,-11.61 -17.41,-21.04 -31.85,-31.28 -68.8,-56.62 -104.27,-83.18 -7.18,-5.38 -12.95,-8.24 -20.09,-13.54 -36.08,-26.81 -64.69,-63.14 -84.53,-102.92 -4.84,-9.71 -9.08,-18.36 -12.27,-26.18l-10.89 -27.55c-6.56,-16.47 -9.61,-9.66 -9.61,-24.03 0,-24.13 5.1,-31.77 19.23,-52.87 -8.21,-12.26 -17.26,-22.47 -31.35,-31.14l-36.64 -25.84c-10.09,-9.29 -17.33,-21.32 -29.31,-33.18 -54.71,-54.17 -68.67,-38.95 -103.46,-74.37 -7.46,-7.6 -63.62,-67.42 -63.62,-37.32 0,41.61 37.98,62.47 56.61,92.39l20.3 42.17 -28.84 0c-10.28,44.1 27.92,54.13 44.01,90.56l7.25 16.78c0.46,1.03 1.03,2.28 1.5,3.3 0.47,1.02 1.03,2.28 1.51,3.3 0.48,1 1.04,2.28 1.53,3.27 14.56,29.22 79.52,58.35 25.91,94.25l-36.69 -16.19c-14.27,-4.97 -32.66,-3.03 -49.84,-3.03 -8.81,16.63 -6.55,14.16 -20.45,27.61 -18.73,18.13 -29.01,29.57 -0.71,41.6l10.66 3.76c7.29,2.22 2.31,0.86 11.47,2.95 75.92,17.25 -1.82,82.67 -25.01,82.67l-144.21 0c-6.9,0 -18.76,-9.61 -57.69,-9.61 -5.45,20.4 -9.61,8.41 -9.61,24.03 0,24.86 9.62,22.09 12.88,49.92 4.25,36.28 -37.26,26.97 -60.95,26.97 -21.69,0 2.23,-0.08 -13.68,-5.55l-43.62 -14.06c-1.14,-0.41 -2.44,-0.81 -3.59,-1.22 -1.14,-0.41 -2.42,-0.83 -3.56,-1.24 -38.18,-13.87 -84.2,-31.17 -118.74,-54.3 -8.43,-5.64 -9.61,-8.85 -18.71,-14.94 0.71,32.02 20.77,39.52 32.28,64.98 13.98,30.95 -29.24,7.1 -51.5,7.1 4.18,7.89 6.19,15.16 10.42,23.22l37.64 63.29c-9.9,6.63 -12.48,14.42 -24.03,14.42 -56.65,0 -26.3,-1.23 -57.68,-9.61 -22.24,33.2 -34.3,67.28 -81.72,67.28 -9.5,-23.52 2.13,2.28 -11.71,-12.32 -5.77,-6.09 -3.9,-3 -8.55,-10.68l-14.19 -29.06c-13.84,-27.86 -15.66,-48.86 -52.08,-48.86 -41.35,0 -28.84,100.42 -28.84,124.95l-4.81 52.86c-22.17,5.17 -29.75,4.81 -57.68,4.81 -6.05,-22.65 -15.08,-15.1 -21.63,-31.24 -6,-14.76 0.07,-33.77 -2.76,-50.11 -3.22,-18.57 -11.19,-16.5 -22.26,-30.6 -32.39,-41.24 -6.92,-49.11 -6.23,-80.28l-48.07 0c-8.41,0 -34.08,20.77 -62.49,4.81 5.05,-18.92 99.85,-96.12 48.07,-96.12 -27.2,0 -51.42,27.45 -78.63,11.72 -16.17,-9.35 -15.57,-15.15 -33.87,-24.2l-41.33 -6.74c-5.45,20.4 -9.62,8.41 -9.62,24.03 0,33.81 19.23,-2.75 19.23,105.73 16.48,5.96 12.37,13.26 28.85,19.22 -0.94,41.97 -28.85,18.57 -28.85,72.09 42.14,0.94 -3.68,8.67 38.46,9.61l0 28.83c-24.24,2.02 -6,0.12 -18.75,5.29l-6.55 3.06c-14.15,7.08 6.24,-4.49 -6.28,3.34 -34.11,21.33 -9.24,67.89 -8.44,71.58 6.96,32.1 5.76,57.71 24.95,85.59 3.71,5.38 6.48,7.89 11.21,12.82 11.97,12.47 13.41,18.57 32.69,20.18 2.36,28.31 9.62,10.02 9.62,28.83 0,16.98 -19.23,37.21 -19.23,52.86 0,58.19 -2.11,28.42 10.91,70.8l24.06 52.84c30.41,75.82 103.99,152.53 155.42,238.69l51.16 88.22c0.57,0.86 1.32,2.06 1.92,2.89l15.48 18.16c42.67,57.45 91.67,103.85 143.61,154.39l83.53 70.28c34.01,24 33.16,18.75 50.47,13.73 25.99,-7.53 18.99,3.88 25.86,-13.16 21.43,-8.65 -0.73,-25.04 33.65,-48.06 17.54,4.69 26.61,19.22 38.46,19.22 31.8,0 16.12,-2.11 31.66,-6.79l45.25 -17.24c0,-105.88 -4.21,-77.81 60.87,-56.05 33.25,11.12 59.3,17.74 59.3,60.85 -23.42,1.95 -37.91,13.97 -38.46,38.45 18.55,0 72.11,-10.93 72.11,19.22 0,19.42 -6.09,20.79 -22.04,26.02 -1.2,0.4 -2.53,0.7 -3.72,1.09 -17.58,5.73 0.64,6.53 -36.73,6.53l0 19.22c21.17,7.66 38.13,37.02 70.72,49.91l6.54 2.59c31.79,10.01 36.36,-37.05 69.25,-21.94 8.21,3.77 12.12,7.91 12.12,17.5 0,47.59 -18.28,23.54 -3.22,55.47 7.76,16.45 9.22,18.17 22.96,25.72 2.66,1.46 11.96,5.7 16.23,7.8l121.65 51.39c6.85,6.09 17.79,17.11 22.45,25.61l7.42 16.62c10.1,21.94 19.55,39.02 40.4,50.92l57.5 19.41c1.18,0.37 2.36,0.9 3.53,1.27l63.02 13.89c29.96,6.42 58.5,21.61 88.27,31.89l35.67 12.39c55.66,0 48.69,-5.92 76.91,-48.06 54.98,12.81 66.41,-22.63 123.98,-34.64l58.68 -18.22c29.16,0 30.85,-1.69 48.07,24.03 -5.28,7.88 -6.39,7.06 -10.89,13.14l-11.42 22.22c-0.43,1.09 -0.99,2.3 -1.4,3.41l-5.13 28.52c28.31,2.35 10.03,9.61 28.85,9.61 55.53,0 35.11,-1.36 47.33,-5.55l29.69 -8.76c1.07,-0.42 2.29,-1.02 3.34,-1.47l153.64 -62.66c1.05,-0.46 2.29,-1.01 3.35,-1.46l80.53 -39.64 286.53 -232.56c17.22,-17.42 26,-19.28 43.19,-33.72 23.86,-20.04 59.45,-63.2 60.26,-64.71 20.05,-37.43 -12.75,-73.31 42.03,-73.31 0,-33.91 -1.23,-36.52 -32.6,-53.92 -23.2,-12.86 -28.09,-10.94 -29.89,-32.59 28.8,0 20.32,-0.89 41.51,6.55 14.6,5.13 24.49,12.67 35.4,12.67 70.88,0 52.03,-13.08 69.01,-65.57 16.13,-49.89 66.53,-85.21 88.34,-147.16 16.85,-47.87 44.89,-81.25 61.87,-125.57l16.31 -50.97c0,-24.66 -3,-44.65 -17.43,-69.08 -12.4,-21 -42.29,-31.7 -63.49,-42.26l-69.99 -35.75c-9.36,-5.67 -10.74,-6.43 -18.29,-10.55l-21.44 -17.01c-18.85,-21.64 -40.1,-34.08 -40.1,-65.63 11.82,0.27 6.96,-0.3 16.67,2.56 18.33,5.38 30.6,16.63 46.3,25.8l21.9 11.74c0.98,0.49 2.24,1.09 3.22,1.58l68.51 32.43c5.22,1.79 5.94,1.71 11.09,3.33 12.11,3.8 5.01,1.37 14.35,4.87 12.2,4.58 -11.47,4.18 10.23,4.18 67.37,0 82.41,-4.81 123.52,-59.13 5.91,-7.82 11.27,-20.71 15.04,-28.21 17.2,-34.24 35.1,-69.06 65.81,-92.8 7.44,-5.75 1.82,-3.61 11.95,-7.28l0 -33.64c-19.61,-10.37 -32.1,-24.25 -38.46,-48.06 17.84,-6.46 4.09,-3.58 12.6,-6.62 24.18,-8.66 51.69,1.21 75.16,-11.37 0.94,-0.5 2.17,-1.18 3.09,-1.71 22.94,-13.38 40.6,-36.34 50.04,-60.51l4.03 -10.38c4.53,-11.53 4.1,10.96 4.1,-10.32 0,-73.17 -14.72,-72.23 -75.51,-107.13 -30.69,-17.63 -46.87,-45.17 -75.89,-63.5 -6.07,-3.84 -6.56,-4.32 -11.53,-7.7l-35.93 -16.95c-21.13,-6.42 -28.46,-11.05 -39.2,-32.89 -19.11,-38.83 -24.29,-55.5 -59.99,-79.4 -27.96,7.46 -32.05,26.22 -62.49,-19.22 9.91,-37.12 27.06,-45.25 21.13,-73.32 -7.24,-34.27 -31.39,-65.82 -52,-92.85 -5.23,-6.86 -6.44,-7.06 -10.83,-13.21l-53.51 -66.65c-15.72,-23.66 -30.66,-36.5 -49.09,-56.65 -0.67,-0.73 -1.62,-1.78 -2.3,-2.51 -0.96,-1.02 -3.81,-3.83 -4.79,-4.82 -4.78,-4.86 -8.34,-8.29 -12.06,-11.97l-88.08 -80.14c-12.37,-7.97 -3.78,-2.35 -13.4,-10.63 -11.5,-9.91 -17.72,-7.57 -33.11,-14.95 -2.97,-12.76 -5.59,-49.88 -9.97,-57.47 -15.13,-26.21 -30.07,-5 -42.91,-5l-52.88 0c-25.68,0 -20.93,-37.85 -4.79,-47.97 18,-11.3 21.18,4.43 28.83,-14.5 12.98,-5.24 5.88,0 10.3,-14.35 14.19,-46.09 -96.92,-97.41 -124.47,-106.99 -9.99,-3.47 -18.79,-6.22 -32.06,-11.2 -3.6,-1.35 -6.79,-2.7 -10.45,-3.97l-50.66 -16.64c-1.47,-0.5 -5.61,-2.03 -7.09,-2.52 -52.22,-17.26 -96.95,-46.56 -146.86,-69.44 -8.88,-4.07 -6.05,-2.63 -17.05,-6.98 -6.77,-2.68 -5.47,-2.18 -13.75,-5.48 -17.04,-6.79 -17.85,-12.34 -30.92,-12.34 -33.97,0 -71.35,-9.16 -91.8,23.57 -23.69,37.92 -22.53,26.52 -54.01,11.67l-6.47 -3.14c-0.98,-0.48 -2.22,-1.12 -3.2,-1.61 -0.98,-0.49 -2.21,-1.13 -3.19,-1.62l-19.19 -9.64c-1.32,-0.66 -5.16,-2.58 -6.41,-3.2 -0.93,-0.47 -2.36,-1.18 -3.2,-1.6 -3.89,-1.94 2.21,-0.52 -9.62,-4.8l0 -19.22zm302.84 -413.29c-15.72,5.69 -3.49,-6.24 -14.42,14.42l-57.68 0c-10.05,47.45 35.69,60.43 54.04,75.73 32.93,27.46 53.08,38.58 97.9,51.1l73.99 17.34c2.87,0 9.97,-6.64 14.42,-9.62 -3.41,-40.97 -43.84,-29.32 -28.72,-44.43 26.27,-26.26 65.48,54.18 139.32,-42.04 32.68,-42.59 56.3,-59.51 82.94,-90.08 12.2,-14 10.57,-19.77 23.88,-33.8 5.3,-5.58 9.74,-8.49 14.54,-14.31 13.87,-16.85 1.47,-9.81 24.04,-33.63l23.91 -33.77c9.73,-13.15 2.44,-0.92 11.07,-17.76 11.57,-22.58 27.84,-57.86 30.52,-84.83l6.1 -51.79c2.29,-10.86 -0.82,-29.34 -19.95,-29.34 -27.46,0 -0.73,20.52 -58.31,42.63 -14.56,5.59 13.67,5.43 -37.83,5.43 0.74,33.24 11.51,23.98 19.23,52.86 -22.48,33.55 -31.64,16.41 -44.83,11.18 -1.41,-0.56 -5.58,-2.06 -6.93,-2.68 -24.77,-11.47 -49.19,-34.22 -49.19,-70.97l57.69 -19.22c0,-26.68 3.61,-33.52 -19.73,-37.95 -37.71,-7.14 -37.96,-2.69 -37.96,-43.75 13.45,-0.3 31.87,-7.48 40.85,-16.84 6.98,-7.27 3.5,-1.72 7.23,-11.99 -30.03,-20.11 -31.66,-14.96 -51.28,-20.82 -1.22,-0.37 -2.54,-0.7 -3.69,-1.12 -16.48,-5.97 -1.78,-6.9 -12.33,-6.9 -23.28,0 -32.8,4.3 -48.07,4.3 -15.26,0 -24.79,-4.3 -48.07,-4.3 -21.29,0 1.95,-0.66 -13.76,5.47 -42.33,16.52 -58.47,37.79 -85.71,82.52l-84.2 189.74c-8.45,38.69 -26.05,84.62 -7.16,134.06 6.67,17.46 8.17,14.73 8.17,35.15zm-2783.25 374.85c0,40.93 -1.95,50.55 12.37,93.36l9.1 24.54c12.1,32.06 24.41,50.64 41,79.16 23.98,41.22 60.89,84.22 86.56,120.11l140.21 181.81c6.76,11.58 6.28,10.73 17.09,21.36 44.49,43.75 25.93,30.37 77.55,66.65 5.15,3.62 15.11,9.99 20.8,12.84 11.09,5.53 16.46,6.02 27.41,11.05l55.13 16.76c2.72,0.39 34.82,-8.49 15.24,12.88 -7.68,8.38 -1.09,4.27 -12.15,8.27l0 19.22c34.45,9.2 -11.32,9.61 86.53,9.61 24.39,0 92.78,-66.93 112.53,-114.21l3.03 -6.89c2.95,-8.81 9.24,-18.28 -9.81,-18.28 -15.96,0 -3.72,2.98 -21.04,7.94l-15.81 3.86c-1.17,0.31 -2.49,0.78 -3.61,1.08 -1.03,0.28 -2.35,0.83 -3.32,1.08 -9.76,2.46 -0.87,7.33 -17.4,-0.42 -8.45,-3.96 -11.07,-7.16 -15.74,-13.53 5.78,-21.62 14.99,-26.71 32.63,-34.66 14.92,-6.72 33.88,-16.93 49.09,-18.2 2.05,-24.58 3.65,-6.51 9.62,-28.83l-15.24 -18.48 -104.93 -0.74 8.11 -25.53c29.75,-73.91 36.17,-99.73 8.26,-192.67 -0.46,-1.52 -2.04,-5.6 -2.54,-7.08l-23.15 -63.35c-7.83,-17.29 -15.35,-35.25 -25.78,-51.12l-47.33 -68.02c-64.58,-82.2 -65.13,-79.97 -137.15,-127.2 -73.29,-48.08 -217.13,-45.94 -284.56,-2.67 -0.87,0.56 -1.99,1.4 -2.85,1.96 -22.79,14.86 -34.05,19.15 -48.51,42.82l-3.56 6.05c-0.52,0.93 -1.23,2.13 -1.74,3.07 -4.94,9.16 -16.05,32.01 -16.05,46.43zm3302.41 -1653.18c0,93.72 -5.11,58.73 29.58,104.99l28.11 43.99c-6.02,0 -18.74,0.71 -24,-0.04 -22.3,-3.15 -5.86,0.24 -17.26,-6.78 -15.84,-9.76 -11.86,-11.88 -35.66,-12.41 0,36 -1.47,16.34 8.23,30.52 4.87,7.13 32.15,32.24 -17.64,36.94 -38.46,3.62 -42.48,16.54 -59.77,45.99l-46.82 106.98c-0.39,1.16 -0.87,2.39 -1.25,3.55l-4.56 14.67c-3.38,10.25 -0.02,0.73 -3.78,10.64 -4.6,12.09 -4.19,-11.41 -4.19,10.23l0 86.5c0,18.09 18.7,12.58 -0.76,27.42 -19.07,14.55 -28.08,0.82 -28.08,35.05 0,36.4 73.53,31.45 76.91,72.09 -92.94,0 -39.03,-9.61 -86.53,-9.61l8.43 20.4c13.9,27.01 57.13,42.84 84.63,54.76l65.57 20.95c30.98,0 33.94,3.11 67.3,-19.22l0 -38.44c-24.59,-2.05 -6.51,-3.65 -28.85,-9.61l0 -19.22c63.55,0 50.4,12.77 77.55,1.09 17.44,-7.5 18.8,-14.64 29.75,-28.39 22.46,-28.19 114.42,-148.8 122.64,-170.92 7.27,-19.57 0.8,-26.31 0.8,-51.68 60.98,-5.07 9.62,-88.35 9.62,-91.31 0,-25.07 45.05,-23.77 82.02,-86.21l91.03 -158.89c10.37,-19.02 19.36,-35.56 30.9,-55.61 24.29,-42.17 26.65,-64.04 39.16,-105.03 7.07,-23.19 6.86,19.9 6.86,-55.62 0,-21.58 0.15,2.22 -5.52,-13.71l-3.49 -10.92c-16.03,-51.96 -63.83,-94.36 -114.39,-111.51 -61.04,-20.7 -60.95,-9.85 -84.88,-4.8 -22.44,4.73 -14.67,0.3 -35.03,8.23l-51.48 25.42c-0.9,0.54 -2.12,1.25 -2.99,1.81 -32.41,21.14 -61.1,54.75 -84.61,83.61l-117.53 214.1zm1326.73 1768.52c-33.03,-2.75 -62.49,-19.2 -62.49,28.84 0,23.51 26.84,28.76 28.84,52.86 -20.48,7.41 -29.21,18.49 -56.39,8.56 -26.41,-9.64 -10.88,-8.56 -44.55,-8.56 -19.46,0 -47.97,32.64 -61.25,44.49 -11.7,10.45 -17.68,14.06 -29.34,23.53l-83.51 79.9c-14.5,20.19 -12.9,66.54 -22.98,87.56 -20.04,9.61 -36.02,0.58 -57.87,9.42 -74.39,30.11 -53.28,28.38 -96.61,71.62 -32.23,32.17 -67.23,50.82 -123.01,112.5l-14.72 18.92c-16.19,26.05 -7.32,34.39 -1.01,61.46 -33.57,7.82 -14.5,-7.82 -48.07,0 0,30.64 19.23,39.93 19.23,67.28 -64.77,34.26 -49.63,-58.92 -100.95,-48.06 0.76,34.21 15.19,64.48 33.92,91.05l20.38 32.49c13.7,18.57 32.84,28.19 50.16,41.17l63.79 27.53c-2.51,-30.09 -19.23,-25.7 -19.23,-57.67l29.46 4.18c9.25,3.47 2.49,1.13 14.35,4.88 40.35,12.78 -0.28,10.15 71.56,10.15 19.12,0 55.01,-27.88 71.87,-38.68l126.96 -84.53c11.9,-7.8 -5.48,4.34 5.7,-3.91 88.99,-65.75 60.25,-121.61 127.15,-137.19l4.81 -38.45c58.18,0 77.29,7.49 118.99,-34.83 21.32,-21.63 41.07,-45.95 65.61,-64.16 27.46,-20.39 65.37,-41.72 65.37,-78.82 0,-31.97 -31.86,-44.97 -32.27,-68.79 -0.42,-24.51 13.67,-5.07 21.06,2.53 16.29,16.73 10.58,13.4 40.05,13.4 -4.58,-6.84 -5.32,-8.26 -8.99,-15.07 -9.93,-18.45 -24.33,-42.6 4.18,-42.6 11.93,0 37.97,19.22 52.87,19.22 47.13,0 71.33,-15.66 104.56,-49.25 51.68,-52.22 106.43,-102.84 153.53,-158.89 54.49,-64.83 119.54,-120.1 90.3,-217.05 -13.2,-43.76 -51.54,-77.56 -91.03,-96.42 -38.07,-18.18 -72.82,-16.64 -113.15,-16.64l-145.45 99.69 -75.61 92.6c-22.15,31.29 -55.36,55.62 -74.06,89.36 -10.95,19.77 -10.62,42.6 -22.14,64.36zm-432.63 -932.32c0,24.32 2.01,6.63 4.76,18.99 4.51,20.32 0.05,-0.81 0.05,19.46 -38.73,8.2 -29.67,-17.21 -76.91,14.42 5.96,22.33 7.56,4.25 9.61,28.83 -40.25,26.94 -76.28,58.94 -100.94,100.92 -13.2,22.48 -9.62,28.89 -9.62,62.47 -13.71,4.96 -16.69,12.82 -27.74,25.13l-32.94 34.35c-0.67,0.73 -1.62,1.79 -2.3,2.51 -0.68,0.71 -1.67,1.74 -2.37,2.43l-17.56 16.09c-49.22,53.33 -24.74,53.85 -95.04,111.63l-7.81 6.61c-22.93,19.47 -32.06,30.86 -16.69,56.51 10.82,18.05 29.26,28.31 45.82,40.7 21.14,15.82 39.54,26.8 50.21,50.72 4.99,11.18 5.47,-1.47 5.47,18.56 0,13.93 -7.19,14.42 -19.23,14.42 -21.58,0 -63.11,-47.59 -98.62,-69.75 -0.92,-0.58 -2.12,-1.31 -3.06,-1.87 -0.95,-0.56 -2.16,-1.29 -3.13,-1.82 -0.98,-0.54 -2.2,-1.26 -3.19,-1.75 -16.7,-8.31 -41.02,-3.98 -41.02,17.53 0,14.26 19.23,18.84 19.23,57.67 -74.76,0 -26.36,-28.83 -110.56,-28.83 -14.17,0 -51.02,42.77 -61.42,53.93 -8.55,9.19 -5.52,5.88 -12.3,16.53 -14.98,23.52 -27.22,44.31 -27.22,64.09 0,17.59 21.88,34.39 31.63,54.88 7.4,15.55 5.04,0.58 6.83,22.01 -41.59,9.69 -36.58,-7.26 -67.3,-14.42 -13.32,8.92 -19.23,16.01 -19.23,33.65 0,19.38 0.05,-0.08 5.47,13.75 11.5,29.36 27.58,53.64 45.7,79.27 17.13,24.22 38.28,41.95 63.33,56.83l16.17 7.87c4.06,1.43 6.29,1.66 11.12,3.31 1.14,0.39 2.37,0.9 3.51,1.29 1.47,0.51 5.39,2.25 6.89,2.72 39.66,12.49 87.91,3.33 122.42,-20.27l163.06 -173.39c0.44,-1.08 0.93,-2.35 1.36,-3.44l2.76 -6.86c8.38,-22.53 10.8,-46.18 4.71,-70.93 -2.39,-9.7 -1.45,-5.68 -3.39,-11.15 -4.01,-11.32 -5.67,2.86 -5.67,-18.37 0,-11.56 7.79,-14.13 14.42,-24.03 35.46,23.74 52.8,61.41 87.37,0.84 8.21,-14.38 12.5,-32.58 20.84,-51.25 7.09,-15.87 12.29,-35 25.43,-46.66 28.68,-25.47 38.03,-3.76 92.72,-65.9l40.17 -41.54c100.58,-83.62 44.54,-97.68 60.35,-165.53 23.23,0 36.81,7.71 52.88,0 21,-15.38 4.07,-29.18 26.28,-41 12.1,-6.44 48.42,1.28 75.59,-63.8 11.2,-26.84 -5.83,-17.77 18.3,-53.79 23.8,0 37.37,8.97 57.1,-0.36 49.49,-23.4 212.09,-216.69 212.09,-287.99 0,-56.89 -29.19,-113.03 -71.24,-149.84 -0.75,-0.66 -1.84,-1.56 -2.59,-2.22 -0.75,-0.65 -1.83,-1.58 -2.58,-2.22l-36.73 -25.76c-57.92,-26.52 -93.79,-29.37 -153.67,4.61l-41.39 25.9c-34.82,23.17 -81.12,79.37 -105.93,115.16l-29.37 47.53c-0.54,0.91 -1.26,2.11 -1.79,3.01 -0.54,0.91 -1.25,2.11 -1.79,3.02l-48.17 86.4c-6.19,8.81 -43.12,41.58 -43.12,48.2zm-2115.08 -677.61c0,55.4 -35.83,70.84 40.15,89.62l43.97 13.71c17.45,8.62 -1.86,2.22 16.83,7.21 -0.6,26.82 -3.98,24.13 -25.7,31.97 -25.11,9.06 21.06,-6.11 -7.02,2.6l-35.54 7.72c-58.13,20.84 -45.89,56.04 -52.49,110.92 -2.46,20.47 -8.62,20.71 -9.26,48.42 -0.39,16.73 1.51,36.65 0.13,52.99 -3.8,45.1 -9.53,9.4 -9.53,120.23 0,14.34 9.61,27.79 9.61,57.67 0,36.29 -33.65,42.39 -33.65,72.09 0,10.81 8.54,21.35 14.41,33.65 7.59,15.93 10.71,16.08 19.24,28.82l-54.14 51.6c-30.65,36.66 -24.92,86.19 -27.39,131.21 -1.52,27.78 -7.4,18.51 -9.74,43.13 -1.58,16.81 1.46,34.31 -1.19,51.67 -5.77,37.86 -12.09,61.55 -2.63,100.99 9.97,41.55 -0.54,30.4 17.53,83.39l3.71 10.71c6.22,19.4 12.11,34.69 26.84,50.06l16.21 17.43c51.06,51.28 74.42,41.3 146.17,41.3 22.44,0 43.93,-13.68 58.91,-27.61 23.77,-22.1 21.9,-23.76 35.68,-55.64l3.02 -6.59c29.33,-64.85 87.92,-145.41 94.78,-212.81l4.02 -20.01c5.4,-16.74 0.93,8.22 4.78,-14.45 4.36,-25.68 0.09,-28.31 8.03,-59.25 11.95,-46.59 2.29,-95.21 2.29,-141.88l-9.61 0c-13.19,-32.65 -71.5,-4.98 -81.72,-43.25 15.11,-20.61 42.29,-15.85 67.14,-19.38 18.73,-2.66 22.54,-9.54 20.54,-22.12 -4.81,-30.31 -44.42,-53.37 -44.42,-93.05 0,-28.77 28.84,-86.32 28.84,-115.34 0,-62.43 -9.61,-52.28 -9.61,-100.92l14.26 -67.44c10.34,-30.57 14.58,-52.81 14.58,-86.34 0,-23.65 -24.68,-22.14 -44.34,-27.75 -26.61,-7.6 -33.73,-5.89 -66.22,-5.89 -1.75,-7.5 -3.27,-11.33 -2.89,-14.75 1.81,-16.47 5.17,-10.46 8.51,-12.86 1.12,-0.81 4.99,-2.8 6.31,-3.49 41.24,-21.36 94.15,1.09 108.24,2.26l3.56 -6.13c0.34,-0.71 1.29,-2.29 1.68,-3.21 2.24,-5.29 0.95,4.26 3.91,-10.97 3.51,-18.12 -5.75,-40.9 -13.32,-57.22 -6.25,-13.49 -14.13,-5.28 8.58,-43.02l71.18 -188.35c4.09,-12.77 2.03,8.65 5.9,-18.13 1.61,-11.14 0.25,-35.36 0.23,-47.83 -0.05,-25.74 2.76,-72.36 -0.51,-95.6 -4.56,-32.32 -25.39,-75.05 -42.37,-101.81 -44.08,-69.48 -69.36,-66.9 -134.98,-66.9 -12.73,0 -52.75,21.14 -66.26,29.87l-5.66 3.96c-0.07,0.06 -5.79,5.19 -7.54,6.87l-38.37 38.54c-11.61,11.62 -13.23,14.01 -21.41,26.65 -0.56,0.87 -1.27,2.1 -1.84,2.97l-59.12 113.9 -28.25 144.77c-4.36,16.92 -0.25,28.94 -3,45.06 -3.77,22.08 -18.94,56 -3.03,90.96 0.46,1.02 1.09,2.24 1.58,3.22 3.28,6.54 1.33,4.04 5.1,9.32l16.29 12.55z"/>
 </g>
</svg>
